<?xml version="1.0" standalone="no"?><!DOCTYPE svg PUBLIC "-//W3C//DTD SVG 1.1//EN" "http://www.w3.org/Graphics/SVG/1.1/DTD/svg11.dtd"><svg class="icon" width="128px" height="102.40px" viewBox="0 0 1280 1024" version="1.1" xmlns="http://www.w3.org/2000/svg"><path d="M1172.48 560c0 11.52 8.96 20.48 20.48 20.48 11.52 0 20.48-8.96 20.48-20.48 0-11.52-8.96-20.48-20.48-20.48-3.84 0-7.04 0.64-10.24 2.56-6.4 3.2-10.24 10.24-10.24 17.92" fill="#4DA1FF" /><path d="M15.36 396.8h-15.36c0 8.32 7.04 15.36 15.36 15.36s15.36-7.04 15.36-15.36c0-8.32-7.04-15.36-15.36-15.36-2.56 0-5.12 0.64-7.68 1.92-5.12 2.56-7.68 7.68-7.68 13.44" fill="#83C0FC" /><path d="M1089.28 383.36c0-17.92-14.08-32-32-32s-32 14.08-32 32 14.08 32 32 32c17.28-0.64 31.36-14.72 32-32z m-82.56 0c0-27.52 23.04-50.56 50.56-50.56s50.56 23.04 50.56 50.56c0 27.52-23.04 50.56-50.56 50.56s-50.56-23.68-50.56-50.56z" fill="#4DA1FF" /><path d="M1091.84 52.48c0-17.92-14.08-32-32-32s-32 14.08-32 32 14.08 32 32 32c17.28 0 31.36-14.08 32-32z m-46.08 0c0-7.68 6.4-13.44 13.44-13.44s13.44 6.4 13.44 13.44-6.4 13.44-13.44 13.44-13.44-5.76-13.44-13.44z m172.8 232.32H1203.2c-5.76 0-10.24 4.48-10.24 10.24 0 5.76 4.48 10.24 10.24 10.24h15.36v15.36c0 5.76 4.48 10.24 10.24 10.24 5.76 0 10.24-4.48 10.24-10.24v-15.36h15.36c5.76 0 10.24-4.48 10.24-10.24 0-5.76-4.48-10.24-10.24-10.24h-15.36v-15.36c0-5.76-4.48-10.24-10.24-10.24-5.76 0-10.24 4.48-10.24 10.24v15.36z" fill="#83C0FC" /><path d="M106.88 719.36h-25.6c-4.48 0-8.32 3.84-8.32 8.32 0 5.12 3.2 8.32 8.32 8.32h25.6v25.6c0 4.48 3.84 8.32 8.32 8.32 5.12 0 8.32-3.2 8.32-8.32v-25.6h25.6c4.48 0 8.32-3.84 8.32-8.32 0-5.12-3.2-8.32-8.32-8.32h-25.6v-25.6c0-4.48-3.84-8.32-8.32-8.32-5.12 0-8.32 3.2-8.32 8.32v25.6z" fill="#4DA1FF" /><path d="M409.6 943.36c0 21.76 88.32 39.04 196.48 39.04s196.48-17.28 196.48-39.04-88.32-39.04-196.48-39.04-196.48 17.92-196.48 39.04z" fill="#DEEDFF" /><path d="M279.68 227.84h-72.96c-5.76 0-10.24-4.48-10.24-10.24 0-5.76 4.48-10.24 10.24-10.24h72.96c5.76 0 10.24 4.48 10.24 10.24 0 5.76-4.48 10.24-10.24 10.24z m94.72-119.68c-5.76 0-10.24-4.48-10.24-10.24v-67.2c0-5.76 4.48-10.24 10.24-10.24 5.76 0 10.24 4.48 10.24 10.24v67.2c-0.64 6.4-5.12 10.24-10.24 10.24z m-55.04 48c-2.56 0-5.12-1.28-7.04-3.2l-57.6-58.24c-3.84-3.84-3.84-10.24 0-14.08s10.24-3.84 14.08 0l58.24 58.24c3.84 3.84 3.84 10.24 0 14.08-2.56 1.92-5.12 3.2-7.68 3.2z" fill="#4DA1FF" /><path d="M860.8 782.08c0 28.8-23.68 52.48-52.48 52.48h-414.08c-28.8 0-52.48-23.68-52.48-52.48v-487.04c0-28.8 23.68-52.48 52.48-52.48h414.08c28.8 0 52.48 23.68 52.48 52.48v487.04z" fill="#B4D7FF" /><path d="M807.68 844.8h-414.08c-34.56 0-62.72-28.16-62.72-62.72v-487.04c0-34.56 28.16-62.72 62.72-62.72h414.08c34.56 0 62.72 28.16 62.72 62.72v487.04c0 33.92-28.16 62.72-62.72 62.72z m-414.08-592.64c-23.68 0-42.24 19.2-42.24 42.24v487.04c0 23.68 19.2 42.24 42.24 42.24h414.08c23.68 0 42.24-19.2 42.24-42.24v-486.4c0-23.68-19.2-42.24-42.24-42.24 0-0.64-414.08-0.64-414.08-0.64z" fill="#4DA1FF" /><path d="M934.4 712.96c0 28.8-23.68 52.48-52.48 52.48H467.2c-28.8 0-52.48-23.68-52.48-52.48v-486.4c0-28.8 23.68-52.48 52.48-52.48h414.08c28.8 0 52.48 23.68 52.48 52.48v486.4z" fill="#FFFFFF" /><path d="M881.28 173.44H467.2c-28.8 0-52.48 23.68-52.48 52.48v48c0-28.8 23.68-52.48 52.48-52.48h414.08c28.8 0 52.48 23.68 52.48 52.48v-48c0.64-28.8-23.04-52.48-52.48-52.48z" fill="#F0F7FF" /><path d="M881.28 776.32H467.2c-34.56 0-62.72-28.16-62.72-62.72v-487.04c0-34.56 28.16-62.72 62.72-62.72h414.08c34.56 0 62.72 28.16 62.72 62.72v487.04c0 33.92-28.16 62.72-62.72 62.72z m-414.08-592.64c-23.68 0-42.24 19.2-42.24 42.24v487.04c0 23.68 19.2 42.24 42.24 42.24h414.08c23.68 0 42.24-19.2 42.24-42.24v-486.4c0-23.68-19.2-42.24-42.24-42.24l-414.08-0.64z" fill="#4DA1FF" /><path d="M840.32 298.24H492.8c-5.76 0-10.24-4.48-10.24-9.6s4.48-10.24 10.24-10.24h347.52c5.76 0 10.24 4.48 10.24 10.24 0 5.76-5.12 9.6-10.24 9.6z m-121.6 377.6h-224.64c-5.76 0-10.24-4.48-10.24-10.24s4.48-10.24 10.24-10.24h225.28c5.76 0 10.24 4.48 10.24 10.24-1.28 5.76-5.12 10.24-10.88 10.24z" fill="#DEEDFF" /><path d="M501.76 455.68c0 10.24 8.32 18.56 18.56 18.56 10.24 0 18.56-8.32 18.56-18.56 0-10.24-8.32-18.56-18.56-18.56-10.24 0-18.56 8.32-18.56 18.56z m308.48-1.92c0 10.24 8.32 18.56 18.56 18.56 10.24 0 18.56-8.32 18.56-18.56 0-10.24-8.32-18.56-18.56-18.56-9.6 0-18.56 8.32-18.56 18.56z m-62.08 104.32h-149.76c-5.76 0-10.24-4.48-10.24-10.24 0-5.76 4.48-10.24 10.24-10.24h149.76c5.76 0 10.24 4.48 10.24 10.24s-4.48 10.24-10.24 10.24z" fill="#4DA1FF" /></svg>