<?xml version="1.0" encoding="UTF-8"?>
<svg width="34px" height="34px" viewBox="0 0 34 34" version="1.1" xmlns="http://www.w3.org/2000/svg" xmlns:xlink="http://www.w3.org/1999/xlink">
    <!-- Generator: Sketch 45.1 (43504) - http://www.bohemiancoding.com/sketch -->
    <title>发布</title>
    <desc>Created with Sketch.</desc>
    <defs></defs>
    <g id="Page-1" stroke="none" stroke-width="1" fill="none" fill-rule="evenodd">
        <g id="Artboard" transform="translate(-529.000000, -563.000000)" fill-rule="nonzero" fill="#7AC627">
            <g id="发布" transform="translate(529.000000, 563.000000)">
                <path d="M30.9718384,0.504001836 L1.18138206,15.5362066 C-0.184470442,16.0841131 0.363436006,17.4499656 0.907428837,17.7239188 L8.0145582,22.0954295 C8.56246465,22.3693828 9.10645748,22.3693828 9.92831715,21.8214763 L26.8703673,7.6111312 L27.4182737,7.88508442 L11.8420761,23.1873288 C11.5681229,23.461282 11.5681229,23.7352353 11.5681229,24.0052749 L11.5681229,30.5644978 C11.5681229,31.1124042 11.8420761,31.6563971 12.3860689,31.9303503 C12.9339754,32.2043035 13.4779682,31.9303503 13.7519214,31.6563971 L17.3054861,28.1028324 L24.4126155,32.7482963 C25.2305615,33.2962028 26.6003277,33.2962028 26.8703673,31.9303503 L33.155637,2.41384717 C33.4295902,0.777955061 32.3376909,-0.0439046122 30.9718384,0.504001836 Z" id="Shape"></path>
            </g>
        </g>
    </g>
</svg>