<?xml version="1.0" encoding="UTF-8"?>
<svg width="31px" height="29px" viewBox="0 0 31 29" version="1.1" xmlns="http://www.w3.org/2000/svg" xmlns:xlink="http://www.w3.org/1999/xlink">
    <!-- Generator: Sketch 51.1 (57501) - http://www.bohemiancoding.com/sketch -->
    <title>手机中左图</title>
    <desc>Created with Sketch.</desc>
    <defs></defs>
    <g id="Page-1" stroke="none" stroke-width="1" fill="none" fill-rule="evenodd">
        <g id="Artboard" transform="translate(-468.000000, -269.000000)" fill="#73BC23">
            <g id="手机中左图" transform="translate(470.000000, 270.000000)">
                <path d="M12.6103488,22.7997167 C13.4387759,22.7997167 14.1103488,23.4712895 14.1103488,24.2997167 C14.1103488,25.1281438 13.4387759,25.7997167 12.6103488,25.7997167 L2.18419805,25.7997167 C0.338458746,25.7997167 -1.15780859,24.3034493 -1.15780859,22.45771 L-1.15780859,2.54228998 C-1.15780859,0.696550682 0.338458746,-0.799716658 2.18419805,-0.799716658 L19.815802,-0.799716658 C21.6615413,-0.799716658 23.1578086,0.696550682 23.1578086,2.54228998 L23.1578086,10.4972061 C23.1578086,11.3256332 22.4862357,11.9972061 21.6578086,11.9972061 C20.8293815,11.9972061 20.1578086,11.3256332 20.1578086,10.4972061 L20.1578086,2.54228998 C20.1578086,2.35340493 20.004687,2.20028334 19.815802,2.20028334 L2.18419805,2.20028334 C1.995313,2.20028334 1.84219141,2.35340493 1.84219141,2.54228998 L1.84219141,22.45771 C1.84219141,22.6465951 1.995313,22.7997167 2.18419805,22.7997167 L12.6103488,22.7997167 Z" id="Rectangle-7" fill-rule="nonzero"></path>
                <rect id="Rectangle-11" x="4.48443585" y="6" width="13.0311283" height="3" rx="1.5"></rect>
                <rect id="Rectangle-11-Copy" x="4.44903271" y="13" width="10.5884736" height="3" rx="1.5"></rect>
                <path d="M20.13842,27.0101111 C19.2302515,27.638843 17.9843476,27.4123151 17.3556156,26.5041466 C17.1240559,26.1696715 17,25.7725356 17,25.3657267 L17,15 C17,13.8954305 17.8954305,13 19,13 C19.4068089,13 19.8039448,13.1240559 20.13842,13.3556156 L27.6247781,18.538479 C28.5329465,19.1672109 28.7594745,20.4131149 28.1307425,21.3212833 C27.9938742,21.518982 27.8224768,21.6903794 27.6247781,21.8272477 L20.13842,27.0101111 Z" id="Triangle-4"></path>
            </g>
        </g>
    </g>
</svg>