<?xml version="1.0" encoding="UTF-8" standalone="no"?>
<svg width="10px" height="10px" viewBox="0 0 10 10" version="1.1" xmlns="http://www.w3.org/2000/svg" xmlns:xlink="http://www.w3.org/1999/xlink">
    <!-- Generator: Sketch 39.1 (31720) - http://www.bohemiancoding.com/sketch -->
    <desc>Created with Sketch.</desc>
    <defs></defs>
    <path d="M0.33978,4.39394 C0.532705,4.3475021 0.795372,4.3248774 1.068014,4.3269149 C1.364724,4.32912219 1.674253,4.3604062 1.919432,4.4215735 C2.226584,3.8437745 2.703231,3.4159835 3.262052,3.1597735 C3.850251,2.8900605 4.529582,2.8104285 5.197752,2.9459215 C5.5513,3.0176158 5.883623,3.1550195 6.157369,3.3683195 C6.317397,3.4929465 6.457263,3.6433815 6.569749,3.8214925 C6.405052,3.0726705 5.991143,2.5079025 5.455279,2.1424325 C4.888643,1.7559455 4.185329,1.5915875 3.495679,1.6672715 C3.4312008,1.67431783 3.365746,1.6837412 3.299528,1.6954568 C2.611152,1.8174938 1.962418,2.1660758 1.437428,2.6564328 C0.931026,3.1294708 0.540039,3.7339728 0.339768,4.3939528 L0.33978,4.39394 Z" id="_222054608" stroke="none" fill="#DA251D" fill-rule="evenodd"></path>
    <path d="M8.9178,7.78989 C8.734171,7.7140782 8.508179,7.577948 8.288809,7.416052 C8.050592,7.240233 7.818657,7.033088 7.656082,6.839186 C7.068138,7.126091 6.431042,7.191927 5.828192,7.070824 C5.193555,6.943226 4.597032,6.608355 4.136222,6.106071 C3.892529,5.840433 3.704443,5.533917 3.608299,5.200193 C3.5520981,5.005273 3.5273086,4.801396 3.5410192,4.591237 C3.2342492,5.29379 3.2371352,5.994007 3.4558265,6.604707 C3.6871245,7.250508 4.1593565,7.796857 4.7614765,8.140807 C4.8176349,8.1728975 4.8761705,8.2037995 4.9369135,8.2333432 C5.5655655,8.5392222 6.2952835,8.6385072 7.0083235,8.5504282 C7.6961905,8.4653628 8.3678835,8.2061342 8.9177935,7.7898912 L8.9178,7.78989 Z" id="_222051392" stroke="none" fill="#5F5F5F" fill-rule="evenodd"></path>
    <path d="M9.2754,2.09938 C9.146528,2.250621 8.947279,2.423426 8.725574,2.581969 C8.484768,2.75418 8.216031,2.910727 7.981337,3.005471 C8.0725573,3.653564 7.9384647,4.279801 7.637,4.815491 C7.319703,5.379452 6.816781,5.843241 6.19641,6.126451 C5.868289,6.276207 5.518773,6.360381 5.17206,6.34875 C4.96916,6.34195835 4.767363,6.302397 4.571466,6.224251 C5.145021,6.733412 5.812006,6.947179 6.460516,6.927866 C7.145963,6.9074911 7.811456,6.627081 8.324906,6.160495 C8.3740605,6.1158399 8.4215596,6.0697416 8.467106,6.022497 C8.952284,5.519194 9.272213,4.855857 9.408725,4.150547 C9.540398,3.470151 9.5013885,2.751217 9.275396,2.099387 L9.2754,2.09938 Z" id="_222054272" stroke="none" fill="#FACF0E" fill-rule="evenodd"></path>
    <path d="M3.97412,0.000679165 C4.078202,0.170046165 4.180926,0.412890165 4.263189,0.672628165 C4.3524567,0.954651165 4.418251,1.25857717 4.435867,1.51139616 C5.080437,1.62494416 5.634637,1.94606117 6.051007,2.39830017 C6.489365,2.87447917 6.775039,3.49604017 6.852676,4.17347016 C6.893723,4.53168716 6.8657075,4.89011616 6.747448,5.21650016 C6.6782581,5.40730316 6.578294,5.58702716 6.443394,5.74917716 C7.1049,5.36111916 7.514264,4.79282816 7.696284,4.17007716 C7.888742,3.51171216 7.827745,2.79204716 7.542665,2.15953716 C7.5152013,2.09858216 7.4860821,2.03915516 7.4554348,1.98168116 C7.1266768,1.36478716 6.5946788,0.855541165 5.9660248,0.507771165 C5.3597008,0.172306165 4.6638548,-0.012723835 3.9741148,0.000690165 L3.97412,0.000679165 Z" id="_222054176" stroke="none" fill="#0050b3" fill-rule="evenodd"></path>
    <path d="M3.39521,9.20816 C3.4105761,9.010226 3.4701304,8.753374 3.556299,8.49474 C3.6501086,8.213354 3.775457,7.928699 3.909422,7.71438 C3.454764,7.243719 3.195195,6.65815 3.12418,6.04746 C3.0494719,5.404843 3.1837343,4.73413 3.519114,4.14032 C3.696673,3.826079 3.929966,3.55246 4.217253,3.358134 C4.385261,3.244501 4.57165,3.157908 4.776078,3.106037 C4.012824,3.0312864 3.347668,3.250444 2.834428,3.647161 C2.291775,4.066673 1.918107,4.684711 1.777008,5.363961 C1.7636794,5.4281845 1.7523458,5.493342 1.7431771,5.559051 C1.646481,6.251629 1.7775174,6.976381 2.0816561,7.627151 C2.3750131,8.254954 2.8292041,8.813651 3.3952061,9.208161 L3.39521,9.20816 Z" id="_222054224" stroke="none" fill="#16894B" fill-rule="evenodd"></path>
</svg>