<?xml version="1.0" encoding="UTF-8"?>
<!DOCTYPE svg PUBLIC "-//W3C//DTD SVG 1.1//EN" "http://www.w3.org/Graphics/SVG/1.1/DTD/svg11.dtd">
<!-- Creator: CorelDRAW -->
<svg xmlns="http://www.w3.org/2000/svg" xml:space="preserve" width="200px" height="200px" style="shape-rendering:geometricPrecision; text-rendering:geometricPrecision; image-rendering:optimizeQuality; fill-rule:evenodd; clip-rule:evenodd"
viewBox="0 0 85.1738 85.1738"
 xmlns:xlink="http://www.w3.org/1999/xlink">
 <defs>
  <style type="text/css">
   <![CDATA[
    .fil3 {fill:white}
    .fil4 {fill:white}
    .fil0 {fill:white}
    .fil1 {fill:white}
    .fil2 {fill:white}
   ]]>
  </style>
    <mask id="id0">
  <linearGradient id="id1" gradientUnits="userSpaceOnUse" x1="33.8927" y1="12.0245" x2="32.2127" y2="42.4124">
   <stop offset="0" style="stop-opacity:1; stop-color:white"/>
   <stop offset="1" style="stop-opacity:0; stop-color:white"/>
  </linearGradient>
     <rect style="fill:url(#id1)" x="14.3836" y="-0.502993" width="37.3382" height="55.4424"/>
    </mask>
    <mask id="id2">
  <linearGradient id="id3" gradientUnits="userSpaceOnUse" x1="75.3337" y1="25.6627" x2="36.6355" y2="29.7329">
   <stop offset="0" style="stop-opacity:1; stop-color:white"/>
   <stop offset="1" style="stop-opacity:0; stop-color:white"/>
  </linearGradient>
     <rect style="fill:url(#id3)" x="26.2919" y="14.0934" width="59.3848" height="27.2084"/>
    </mask>
    <mask id="id4">
  <linearGradient id="id5" gradientUnits="userSpaceOnUse" x1="9.7983" y1="35.0762" x2="37.8744" y2="49.5805">
   <stop offset="0" style="stop-opacity:1; stop-color:white"/>
   <stop offset="1" style="stop-opacity:0; stop-color:white"/>
  </linearGradient>
     <rect style="fill:url(#id5)" x="-0.502993" y="19.1162" width="48.6786" height="46.4242"/>
    </mask>
    <mask id="id6">
  <linearGradient id="id7" gradientUnits="userSpaceOnUse" x1="15.9715" y1="71.6966" x2="48.0293" y2="48.3839">
   <stop offset="0" style="stop-opacity:1; stop-color:white"/>
   <stop offset="1" style="stop-opacity:0; stop-color:white"/>
  </linearGradient>
     <rect style="fill:url(#id7)" x="5.04401" y="39.7505" width="53.9128" height="40.5789"/>
    </mask>
    <mask id="id8">
  <linearGradient id="id9" gradientUnits="userSpaceOnUse" x1="61.2449" y1="75.5505" x2="53.189" y2="37.7013">
   <stop offset="0" style="stop-opacity:1; stop-color:white"/>
   <stop offset="1" style="stop-opacity:0; stop-color:white"/>
  </linearGradient>
     <rect style="fill:url(#id9)" x="40.9351" y="27.5751" width="32.5638" height="58.1017"/>
    </mask>
 </defs>
 <g id="图层_x0020_1">
  <metadata id="CorelCorpID_0Corel-Layer"/>
  <g id="_289019688">
   <path id="_289020000" class="fil0" style="mask:url(#id0)" d="M48.6203 6.08923c0.740908,-2.32835 1.66038,-4.51285 2.59896,-6.0847 -5.82868,-0.0895327 -11.6302,1.22781 -16.8261,3.65424 -5.55706,2.59494 -10.4185,6.45843 -13.8746,11.2248 -2.05623,2.83587 -3.57829,5.93934 -4.51788,9.14743 -0.938082,3.20205 -1.29571,6.51275 -1.02812,9.76862l0 0c0.204718,2.43952 0.758513,4.80962 1.64227,7.04693 0.880237,2.22776 2.08641,4.32473 3.60042,6.22806 1.49137,1.87717 3.20859,3.46914 5.06514,4.73618 1.6971,1.1589 3.50837,2.04366 5.36744,2.62562l0.911926 -3.38766c-3.74277,-3.17288 -5.70142,-7.53232 -5.97908,-12.1971 -0.291736,-4.91273 1.28716,-10.165 4.61647,-14.713 2.09396,-2.85901 4.6552,-5.15467 7.52326,-6.87893 2.84493,-1.71068 5.99567,-2.86304 9.29078,-3.44952 0.174036,-2.33942 0.784669,-5.13053 1.60907,-7.72094z"/>
   <path id="_289019928" class="fil1" style="mask:url(#id2)" d="M78.5584 39.9401c2.45611,-0.0181077 4.82672,0.17655 6.61536,0.577436 -0.375233,-1.21221 -0.814848,-2.4028 -1.31281,-3.56622 -1.77909,-4.15522 -4.31216,-7.97093 -7.3789,-11.2273 -4.19848,-4.45853 -9.39339,-7.86681 -15.0163,-9.6645 -3.34691,-1.07037 -6.78386,-1.55173 -10.1413,-1.44963 -3.34893,0.101102 -6.6219,0.785675 -9.64992,2.04517l0.000502993 0.00100599c-2.27101,0.948141 -4.36497,2.20411 -6.22705,3.72969 -1.85353,1.51803 -3.48423,3.30869 -4.83829,5.33273 -1.33494,1.99588 -2.32735,4.11348 -2.96363,6.25874 -0.582466,1.96368 -0.868669,3.95151 -0.850058,5.89105l3.51944 -0.183592c1.87616,-4.52341 5.43685,-7.72446 9.80886,-9.4286 4.60641,-1.79468 10.1137,-1.92395 15.4877,-0.178562 3.37508,1.09602 6.36034,2.81274 8.89794,4.99673 2.00392,1.72476 3.72919,3.74176 5.14511,5.97555 0.361149,0.569388 0.702178,1.15286 1.02258,1.74941 2.28158,-0.555304 5.14008,-0.838489 7.88089,-0.859112z"/>
   <path id="_289019856" class="fil2" style="mask:url(#id4)" d="M7.02329 23.9601c-1.99688,-1.42146 -3.80112,-2.96715 -5.01333,-4.34083 -1.88622,5.48665 -2.4199,11.3857 -1.70615,17.0565 0.763543,6.06106 2.95307,11.8555 6.43931,16.5983 2.07434,2.8228 4.5712,5.22257 7.34671,7.10326 2.77199,1.87868 5.82365,3.24078 9.01464,3.99125 2.39425,0.560837 4.83175,0.769076 7.24259,0.624214 2.39475,-0.144359 4.77189,-0.639304 7.06453,-1.48534l0.00251496 0c2.25944,-0.833459 4.31065,-1.9657 6.09124,-3.3278 1.6302,-1.24692 3.03556,-2.6885 4.1673,-4.26991l-2.95508 -1.90986c-4.18993,2.56174 -8.96082,3.06926 -13.5038,1.89025 -4.78849,-1.24239 -9.32096,-4.35994 -12.6372,-8.91454 -2.0839,-2.86253 -3.48524,-5.99668 -4.24828,-9.24652 -0.755495,-3.22117 -0.882752,-6.55852 -0.425532,-9.85866 -2.17796,-0.886776 -4.6562,-2.32735 -6.87943,-3.91027z"/>
   <path id="_289019784" class="fil3" style="mask:url(#id6)" d="M11.2449 68.8532c-1.97676,1.45164 -4.01137,2.68145 -5.6974,3.40375 4.65973,3.48021 10.1318,5.80806 15.7718,6.88446 6.02937,1.15085 12.2449,0.868669 17.8578,-0.966249 3.33836,-1.09099 6.4026,-2.71163 9.05739,-4.7568 2.65128,-2.04265 4.89663,-4.51134 6.60077,-7.30094l0.00100599 0.00100599c1.27408,-2.08994 2.22574,-4.33077 2.83235,-6.65962 0.602585,-2.31528 0.865148,-4.71858 0.765052,-7.14803 -0.0985866,-2.39123 -0.547256,-4.68437 -1.30124,-6.79644 -0.687591,-1.92747 -1.6302,-3.70253 -2.79111,-5.2613l-2.73779 2.20613c1.15387,4.7558 0.163976,9.4281 -2.36759,13.365 -2.66687,4.14768 -7.04693,7.47397 -12.4259,9.20527 -3.38061,1.08848 -6.80801,1.4461 -10.1464,1.16393 -3.31472,-0.279664 -6.54494,-1.19058 -9.55586,-2.64323 -1.52055,1.78663 -3.66279,3.68744 -5.86288,5.30305z"/>
   <path id="_289019712" class="fil4" style="mask:url(#id8)" d="M55.454 78.7325c0.777124,2.31829 1.32287,4.62351 1.49238,6.44133 4.76636,-3.33484 8.68166,-7.79488 11.4531,-12.7992 2.96414,-5.35285 4.61596,-11.3234 4.59685,-17.2003 -0.0115688,-3.4963 -0.613651,-6.89653 -1.7479,-10.0423 -1.13274,-3.14069 -2.79865,-6.02837 -4.93889,-8.50511l0.000502993 0c-1.60606,-1.85303 -3.45254,-3.446 -5.48765,-4.73819 -2.02455,-1.28464 -4.23973,-2.27554 -6.59474,-2.93144 -2.32081,-0.647352 -4.65117,-0.931543 -6.89855,-0.871184 -2.05473,0.0553292 -4.04205,0.399376 -5.89105,1.01655l1.26251 3.27398c4.90267,0.377245 9.06292,2.75841 12.0422,6.3704 3.13968,3.80464 4.96353,8.97792 4.95699,14.6029 -0.00452694,3.53403 -0.722298,6.89 -2.02404,9.96479 -1.29319,3.05216 -3.16081,5.82717 -5.47659,8.22645 1.23535,1.98783 2.38922,4.6049 3.25487,7.19129z"/>
  </g>
 </g>
</svg>
