<?xml version="1.0" encoding="UTF-8" standalone="no"?>
<svg width="12px" height="13px" viewBox="0 -1 12 13" version="1.1" xmlns="http://www.w3.org/2000/svg" xmlns:xlink="http://www.w3.org/1999/xlink">
    <!-- Generator: Sketch 39.1 (31720) - http://www.bohemiancoding.com/sketch -->
    <desc>Created with Sketch.</desc>
    <defs></defs>
    <path d="M0.60131,5.25131 C0.831829,5.1957601 1.145749,5.1687208 1.471591,5.1711559 C1.826197,5.17379388 2.196124,5.2111822 2.489141,5.2842849 C2.856227,4.5937419 3.425879,4.0825349 4.093741,3.7762749 C4.796713,3.4539839 5.608601,3.3588139 6.407151,3.5207459 C6.829685,3.6063789 7.226803,3.7705939 7.553961,4.0255139 C7.745215,4.1745089 7.912372,4.3542469 8.046807,4.5671119 C7.849973,3.6722269 7.3553,2.9972619 6.714877,2.5604719 C6.037676,2.0985709 5.197177,1.9021429 4.372957,1.9925949 C4.2958974,2.00101616 4.217671,2.0122783 4.138532,2.0262799 C3.315836,2.1721299 2.540522,2.5887289 1.913092,3.1747699 C1.307878,3.7400599 0.840652,4.4625099 0.601302,5.2513199 L0.60131,5.25131 Z" id="_222052952" stroke="none" fill="#FFFFFF" fill-rule="evenodd"></path>
    <path d="M10.853,9.3098 C10.633489,9.2191954 10.363451,9.056554 10.101276,8.863067 C9.816577,8.652941 9.539385,8.405377 9.345088,8.173589 C8.64242,8.516476 7.881008,8.59521 7.160588,8.450425 C6.402117,8.297929 5.689198,7.897717 5.138418,7.297475 C4.847174,6.980004 4.622438,6.613679 4.507483,6.214835 C4.4403666,5.981881 4.41074,5.738222 4.4271259,5.487056 C4.0604969,6.326696 4.0639469,7.163546 4.3253099,7.893356 C4.6017399,8.665169 5.1660659,9.318126 5.8856799,9.729186 C5.9527963,9.7675382 6.0228039,9.80447 6.0953489,9.839778 C6.8466669,10.205392 7.7187789,10.324 8.5709489,10.218735 C9.3930359,10.117071 10.1957489,9.80726 10.8530089,9.309797 L10.853,9.3098 Z" id="_222051200" stroke="none" fill="#FFFFFF" fill-rule="evenodd"></path>
    <path d="M11.2804,2.50903 C11.126382,2.689783 10.888253,2.896306 10.623238,3.085785 C10.335444,3.291599 10.01432,3.478642 9.733831,3.591872 C9.842851,4.366425 9.6825932,5.114852 9.322305,5.755072 C8.943044,6.429077 8.34204,6.983362 7.600615,7.321832 C7.208468,7.500809 6.790805,7.601357 6.376385,7.587457 C6.133944,7.57939086 5.892771,7.5321101 5.65865,7.438715 C6.344069,8.047227 7.1412,8.302655 7.91626,8.279623 C8.735456,8.2552724 9.53081,7.920147 10.14444,7.362518 C10.2031859,7.3091495 10.259953,7.254056 10.314336,7.197593 C10.894185,6.596082 11.276592,5.803313 11.439736,4.960383 C11.597051,4.147275 11.55043,3.288003 11.280392,2.509033 L11.2804,2.50903 Z" id="_222050720" stroke="none" fill="#FFFFFF" fill-rule="evenodd"></path>
    <path d="M5.290174,0.803874687 C5.396911,1.14092769 5.475543,1.50415769 5.496546,1.80625469 C6.266888,1.94200969 6.929226,2.32578569 7.426836,2.86626469 C7.95073,3.43530869 8.292146,4.17815469 8.384932,4.98776469 C8.4339884,5.41587869 8.4005063,5.84424669 8.25912,6.23431469 C8.1764801,6.46234769 8.05701,6.67714069 7.895788,6.87093169 C8.686372,6.40715369 9.175618,5.72797169 9.393148,4.98376169 C9.62316,4.19693169 9.55026,3.33685169 9.209554,2.58091169 C9.1766807,2.50806269 9.1418796,2.43703969 9.105252,2.36835069 C8.712395,1.63108469 8.076592,1.02247069 7.325272,0.606840687 C6.600638,0.205968687 5.769062,-0.015216313 4.944742,0.000814687 C5.06909,0.203226687 5.191858,0.493455687 5.290174,0.803874687 Z" id="_222051968" stroke="none" fill="#FFFFFF" fill-rule="evenodd"></path>
    <path d="M4.25289,11.0048 C4.2712037,10.768244 4.3424293,10.461274 4.445412,10.152173 C4.557526,9.815881 4.707283,9.475682 4.867388,9.219544 C4.324065,8.657095 4.013797,7.957214 3.928925,7.227414 C3.8396394,6.459405 4.0000998,5.657814 4.400972,4.948194 C4.613127,4.572586 4.891992,4.245628 5.235336,4.013384 C5.436076,3.877579 5.658834,3.774038 5.903152,3.712096 C4.991018,3.6227596 4.196072,3.88463 3.582692,4.358757 C2.934154,4.860126 2.487572,5.598757 2.318942,6.410547 C2.3030126,6.4873022 2.2894676,6.565173 2.2785098,6.643704 C2.1629458,7.471422 2.3196015,8.337594 2.6830348,9.115294 C3.0336328,9.865648 3.5764488,10.533314 4.2528848,11.004804 L4.25289,11.0048 Z" id="_222053696" stroke="none" fill="#FFFFFF" fill-rule="evenodd"></path>
</svg>