<?xml version="1.0" encoding="UTF-8"?>
<svg width="31px" height="29px" viewBox="0 0 31 29" version="1.1" xmlns="http://www.w3.org/2000/svg" xmlns:xlink="http://www.w3.org/1999/xlink">
    <!-- Generator: Sketch 51.1 (57501) - http://www.bohemiancoding.com/sketch -->
    <title>未发布左图 copy</title>
    <desc>Created with Sketch.</desc>
    <defs></defs>
    <g id="Page-1" stroke="none" stroke-width="1" fill="none" fill-rule="evenodd">
        <g id="Artboard" transform="translate(-560.000000, -269.000000)" fill="#7F7C7C">
            <g id="未发布左图-copy" transform="translate(560.000000, 269.000000)">
                <path d="M14.6103488,23.7997167 C15.4387759,23.7997167 16.1103488,24.4712895 16.1103488,25.2997167 C16.1103488,26.1281438 15.4387759,26.7997167 14.6103488,26.7997167 L4.18419805,26.7997167 C2.33845875,26.7997167 0.842191405,25.3034493 0.842191405,23.45771 L0.842191405,3.54228998 C0.842191405,1.69655068 2.33845875,0.200283342 4.18419805,0.200283342 L21.815802,0.200283342 C23.6615413,0.200283342 25.1578086,1.69655068 25.1578086,3.54228998 L25.1578086,11.4972061 C25.1578086,12.3256332 24.4862357,12.9972061 23.6578086,12.9972061 C22.8293815,12.9972061 22.1578086,12.3256332 22.1578086,11.4972061 L22.1578086,3.54228998 C22.1578086,3.35340493 22.004687,3.20028334 21.815802,3.20028334 L4.18419805,3.20028334 C3.995313,3.20028334 3.84219141,3.35340493 3.84219141,3.54228998 L3.84219141,23.45771 C3.84219141,23.6465951 3.995313,23.7997167 4.18419805,23.7997167 L14.6103488,23.7997167 Z" id="Rectangle-7" fill-rule="nonzero"></path>
                <rect id="Rectangle-11" x="6.48443585" y="7" width="13.0311283" height="3" rx="1.5"></rect>
                <rect id="Rectangle-11-Copy" x="6.44903271" y="14" width="10.5884736" height="3" rx="1.5"></rect>
                <rect id="Rectangle-12" fill-rule="nonzero" x="18" y="16" width="13" height="13" rx="3"></rect>
            </g>
        </g>
    </g>
</svg>