<?xml version="1.0" encoding="UTF-8"?>
<svg width="32px" height="31px" viewBox="0 0 32 31" version="1.1" xmlns="http://www.w3.org/2000/svg" xmlns:xlink="http://www.w3.org/1999/xlink">
    <!-- Generator: Sketch 51.1 (57501) - http://www.bohemiancoding.com/sketch -->
    <title>未发布左图 copy</title>
    <desc>Created with Sketch.</desc>
    <defs></defs>
    <g id="Page-1" stroke="none" stroke-width="1" fill="none" fill-rule="evenodd">
        <g id="Artboard" transform="translate(-514.000000, -269.000000)">
            <g id="未发布左图-copy" transform="translate(516.000000, 270.000000)">
                <path d="M12.6103488,22.7997167 C13.4387759,22.7997167 14.1103488,23.4712895 14.1103488,24.2997167 C14.1103488,25.1281438 13.4387759,25.7997167 12.6103488,25.7997167 L2.18419805,25.7997167 C0.338458746,25.7997167 -1.15780859,24.3034493 -1.15780859,22.45771 L-1.15780859,2.54228998 C-1.15780859,0.696550682 0.338458746,-0.799716658 2.18419805,-0.799716658 L19.815802,-0.799716658 C21.6615413,-0.799716658 23.1578086,0.696550682 23.1578086,2.54228998 L23.1578086,10.4972061 C23.1578086,11.3256332 22.4862357,11.9972061 21.6578086,11.9972061 C20.8293815,11.9972061 20.1578086,11.3256332 20.1578086,10.4972061 L20.1578086,2.54228998 C20.1578086,2.35340493 20.004687,2.20028334 19.815802,2.20028334 L2.18419805,2.20028334 C1.995313,2.20028334 1.84219141,2.35340493 1.84219141,2.54228998 L1.84219141,22.45771 C1.84219141,22.6465951 1.995313,22.7997167 2.18419805,22.7997167 L12.6103488,22.7997167 Z" id="Rectangle-7" fill="#7F7C7C" fill-rule="nonzero"></path>
                <rect id="Rectangle-11" fill="#7F7C7C" x="4.48443585" y="6" width="13.0311283" height="3" rx="1.5"></rect>
                <rect id="Rectangle-11-Copy" fill="#7F7C7C" x="4.44903271" y="13" width="10.5884736" height="3" rx="1.5"></rect>
                <path d="M18.5608818,14.4114908 L24.5011268,14.4114908 L24.5011268,23.9204762 C23.511086,27.1073979 22.5210452,28.7008588 21.5310043,28.7008588 C20.5409635,28.7008588 19.5509227,27.1073979 18.5608818,23.9204762 L18.5608818,14.4114908 Z" id="Path-7" stroke="#7F7C7C" stroke-width="3" stroke-linecap="round" stroke-linejoin="round" transform="translate(21.531004, 21.556175) rotate(35.000000) translate(-21.531004, -21.556175) "></path>
            </g>
        </g>
    </g>
</svg>